<svg id="Layer_1" xmlns="http://www.w3.org/2000/svg" version="1.1" viewBox="0 0 893.6 143.3">
  <!-- Generator: Adobe Illustrator 29.5.0, SVG Export Plug-In . SVG Version: 2.1.0 Build 137)  -->
  <path d="M71.7,0C.6,0,0,32.1,0,71.7s.6,71.7,71.7,71.7,71.7-32.1,71.7-71.7S142.8,0,71.7,0Z" style="fill: #e64c4c;"/>
  <g>
    <path d="M191.7,35.2h23.7c4.2,0,7.9.4,11.3,1.1,3.4.8,6.2,2,8.6,3.7,2.4,1.7,4.2,3.9,5.5,6.6,1.3,2.7,2,5.9,2,9.7s-.8,7.4-2.3,10.2c-1.5,2.7-3.5,4.9-6.1,6.6-2.6,1.7-5.6,2.9-9,3.6-3.4.8-7.1,1.1-10.9,1.1h-10v30.1h-12.9V35.2ZM213.7,67c2.1,0,4.1-.2,6.1-.5,1.9-.3,3.6-.9,5.1-1.6,1.5-.8,2.7-1.9,3.6-3.2.9-1.4,1.3-3.1,1.3-5.3s-.4-3.9-1.3-5.2c-.9-1.3-2.1-2.4-3.5-3.1-1.5-.8-3.2-1.2-5-1.5-1.9-.2-3.8-.4-5.8-.4h-9.4v20.8h9Z"/>
    <path d="M251.3,30.3h12.3v77.6h-12.3V30.3Z"/>
    <path d="M321.1,108h-11.7v-7.9h-.2c-1.1,2.5-3,4.6-5.7,6.5-2.7,1.9-5.9,2.8-9.6,2.8s-6-.6-8.3-1.7c-2.3-1.1-4.2-2.6-5.6-4.5-1.5-1.8-2.6-4-3.2-6.4-.7-2.4-1-4.9-1-7.4v-30.8h12.3v27.3c0,1.4.1,2.9.3,4.5.2,1.6.6,3,1.3,4.3.7,1.3,1.6,2.3,2.8,3.1,1.2.8,2.8,1.2,4.8,1.2s3.6-.4,5.1-1.2c1.5-.8,2.7-1.8,3.6-3s1.6-2.7,2.1-4.3c.5-1.6.7-3.2.7-4.9v-27.1h12.3v49.3Z"/>
    <path d="M383.4,58.7v44.9c0,4.5-.5,8.5-1.6,12.1-1.1,3.6-2.8,6.6-5.1,9.1-2.3,2.5-5.2,4.4-8.7,5.8-3.5,1.4-7.6,2.1-12.4,2.1s-4.1-.2-6.3-.5c-2.2-.3-4.4-.9-6.6-1.5-2.2-.7-4.2-1.5-6.2-2.6-2-1-3.8-2.2-5.3-3.5l7.1-9.6c2.4,2.3,5.1,4,8.1,5.2,3,1.2,6.1,1.8,9.1,1.8s5.4-.4,7.4-1.3c2-.9,3.6-2,4.8-3.6,1.2-1.5,2.1-3.3,2.6-5.4.5-2.1.8-4.3.8-6.8v-3.6h-.2c-1.8,2.4-4.1,4.3-6.8,5.6-2.8,1.3-5.9,1.9-9.3,1.9s-7.1-.7-10.1-2.1c-3-1.4-5.6-3.2-7.7-5.5-2.1-2.3-3.7-5-4.9-8.2-1.2-3.1-1.7-6.4-1.7-9.9s.6-6.9,1.7-10.1c1.1-3.1,2.7-5.9,4.8-8.2,2.1-2.3,4.6-4.2,7.6-5.5,3-1.4,6.3-2.1,10-2.1s6.7.7,9.8,2.2c3,1.4,5.4,3.7,7.2,6.7h.2v-7.4h11.7ZM357.1,67.3c-2.3,0-4.3.4-6,1.2s-3.2,1.9-4.4,3.3c-1.2,1.4-2.1,3.1-2.8,5-.7,1.9-1,4-1,6.1s.3,3.9,1,5.7c.7,1.8,1.6,3.5,2.8,5,1.2,1.5,2.7,2.6,4.4,3.5s3.7,1.3,5.9,1.3,4.3-.4,6.1-1.3c1.8-.9,3.4-2,4.6-3.4,1.3-1.4,2.2-3.1,2.9-5,.7-1.9,1-3.8,1-5.9s-.3-4.1-1-6c-.7-1.9-1.7-3.6-2.9-5-1.3-1.4-2.8-2.6-4.6-3.4-1.8-.8-3.8-1.2-6.1-1.2Z"/>
    <path d="M394.1,41.9c0-2,.7-3.7,2.2-5.2s3.3-2.2,5.6-2.2,4.2.7,5.7,2.1c1.5,1.4,2.3,3.2,2.3,5.3s-.8,3.9-2.3,5.3c-1.5,1.4-3.4,2.1-5.7,2.1s-4.1-.7-5.6-2.2c-1.5-1.5-2.2-3.2-2.2-5.2ZM395.9,58.7h12.3v49.3h-12.3v-49.3Z"/>
    <path d="M420.6,58.7h11.7v7.9h.2c1.1-2.5,3-4.6,5.7-6.5,2.7-1.9,5.9-2.8,9.6-2.8s6,.6,8.3,1.7c2.3,1.1,4.2,2.6,5.6,4.5,1.5,1.8,2.6,4,3.2,6.4.7,2.4,1,4.9,1,7.4v30.8h-12.3v-27.3c0-1.4-.1-2.9-.3-4.5-.2-1.6-.7-3-1.3-4.3-.7-1.3-1.6-2.3-2.8-3.1-1.2-.8-2.8-1.2-4.8-1.2s-3.7.4-5.1,1.2c-1.4.8-2.6,1.8-3.5,3s-1.6,2.7-2.1,4.3c-.5,1.6-.7,3.2-.7,4.9v27.1h-12.3v-49.3Z"/>
    <path d="M501.5,35.2h12.9v31.4h.3l30.4-31.4h17.5l-34,33.6,36.3,39.1h-18.2l-31.9-36.5h-.3v36.5h-12.9V35.2Z"/>
    <path d="M567.6,41.9c0-2,.7-3.7,2.2-5.2,1.5-1.5,3.3-2.2,5.6-2.2s4.2.7,5.7,2.1c1.5,1.4,2.3,3.2,2.3,5.3s-.8,3.9-2.3,5.3c-1.5,1.4-3.4,2.1-5.7,2.1s-4.1-.7-5.6-2.2c-1.5-1.5-2.2-3.2-2.2-5.2ZM569.3,58.7h12.3v49.3h-12.3v-49.3Z"/>
    <path d="M587,68.5v-9.9h8.6v-14.3h12.1v14.3h12.3v9.9h-12.3v22.9c0,2.2.4,4,1.2,5.4.8,1.4,2.5,2.2,5.3,2.2s1.7,0,2.7-.3c1-.2,1.8-.4,2.6-.8l.4,9.7c-1.1.4-2.4.7-3.9,1-1.5.2-2.9.4-4.3.4-3.3,0-6-.5-8-1.4-2.1-.9-3.7-2.2-4.9-3.8-1.2-1.6-2-3.5-2.5-5.5-.4-2.1-.7-4.3-.7-6.7v-23h-8.6Z"/>
    <path d="M650.1,35.2h25.3c3.4,0,6.7.4,10,1.1,3.2.7,6.1,1.9,8.6,3.5,2.5,1.6,4.5,3.8,6,6.5,1.5,2.7,2.3,5.9,2.3,9.8s-1.5,9.6-4.5,12.9c-3,3.3-7,5.6-12.2,6.7l19.4,32.2h-15.6l-16.8-30.8h-9.4v30.8h-12.9V35.2ZM673.7,66.6c1.8,0,3.7-.1,5.5-.4,1.8-.3,3.5-.8,5-1.5,1.5-.8,2.7-1.8,3.6-3.2,1-1.4,1.4-3.2,1.4-5.4s-.4-3.6-1.3-4.9c-.9-1.3-2-2.3-3.4-3-1.4-.8-2.9-1.3-4.7-1.5-1.7-.3-3.4-.4-5.1-.4h-11.7v20.4h10.6Z"/>
    <path d="M757.4,83.9v1.6c0,.5,0,1.1-.1,1.6h-37.5c.1,1.8.6,3.4,1.4,4.9.8,1.5,1.8,2.7,3.1,3.8,1.3,1.1,2.8,1.9,4.4,2.5,1.6.6,3.4.9,5.1.9,3.1,0,5.7-.6,7.8-1.7,2.1-1.1,3.9-2.7,5.2-4.7l8.2,6.6c-4.9,6.6-11.9,9.9-21.2,9.9s-7.4-.6-10.6-1.8c-3.2-1.2-6-2.9-8.4-5.1-2.4-2.2-4.2-4.9-5.5-8.1-1.3-3.2-2-6.8-2-10.8s.7-7.6,2-10.8c1.3-3.3,3.2-6,5.5-8.3,2.3-2.3,5.1-4.1,8.3-5.3,3.2-1.3,6.6-1.9,10.3-1.9s6.6.6,9.5,1.7c2.9,1.1,5.4,2.8,7.5,5,2.1,2.2,3.8,5,5,8.3,1.2,3.3,1.8,7.2,1.8,11.7ZM745,78.4c0-1.6-.2-3.1-.7-4.5-.4-1.4-1.1-2.7-2.1-3.8-1-1.1-2.2-2-3.6-2.6-1.5-.7-3.2-1-5.2-1-3.7,0-6.8,1.1-9.4,3.3-2.6,2.2-4,5.1-4.3,8.6h25.3Z"/>
    <path d="M796.7,101.7h-.3c-1.2,2.2-3.2,4-6,5.4-2.7,1.4-5.9,2.1-9.3,2.1s-4.1-.3-6.2-.8c-2.2-.5-4.1-1.4-6-2.6-1.8-1.2-3.3-2.8-4.5-4.7-1.2-2-1.8-4.4-1.8-7.2s1-6.6,3.1-8.8c2.1-2.2,4.8-3.9,8.1-5,3.3-1.2,6.9-1.9,10.9-2.3,4-.4,7.9-.6,11.8-.6v-1.2c0-3.1-1.1-5.4-3.3-6.8-2.2-1.5-4.9-2.2-8-2.2s-5.1.5-7.5,1.6c-2.4,1.1-4.4,2.4-6,4l-6.4-7.5c2.8-2.6,6-4.6,9.7-5.9,3.7-1.3,7.4-2,11.1-2s8,.6,10.8,1.8c2.8,1.2,5.1,2.8,6.7,4.8,1.6,2,2.8,4.2,3.4,6.7.7,2.5,1,4.9,1,7.4v30h-11.5v-6.3ZM796.5,85.5h-2.8c-2,0-4.1,0-6.3.3-2.2.2-4.2.5-6.1,1.1-1.8.6-3.4,1.4-4.6,2.5-1.2,1.1-1.8,2.5-1.8,4.4s.3,2.1.8,2.9c.5.8,1.2,1.4,2,1.9.8.5,1.7.8,2.8,1,1,.2,2.1.3,3.1.3,4.2,0,7.5-1.1,9.7-3.4s3.3-5.3,3.3-9.2v-1.7Z"/>
    <path d="M853.7,72.3c-1-1.4-2.4-2.5-4.3-3.4-1.9-.9-3.9-1.4-5.9-1.4s-4.2.5-6,1.4c-1.7.9-3.1,2.1-4.3,3.6-1.1,1.5-2,3.2-2.5,5.1-.5,1.9-.8,3.8-.8,5.7s.3,3.8.9,5.7c.6,1.9,1.5,3.6,2.6,5.1,1.2,1.5,2.6,2.7,4.4,3.6,1.7.9,3.8,1.4,6.1,1.4s3.8-.4,5.8-1.1c1.9-.8,3.5-1.8,4.6-3.3l7.7,7.8c-2.1,2.2-4.7,3.9-7.9,5.1s-6.6,1.8-10.3,1.8-7.1-.6-10.3-1.7c-3.3-1.2-6.1-2.9-8.5-5.1-2.4-2.3-4.3-5-5.8-8.2-1.4-3.2-2.1-6.9-2.1-11s.7-7.6,2.1-10.8c1.4-3.2,3.3-6,5.7-8.2,2.4-2.3,5.2-4,8.4-5.2,3.2-1.2,6.6-1.8,10.2-1.8s7.1.7,10.5,2.1c3.4,1.4,6.1,3.3,8.1,5.6l-8.4,7.4Z"/>
    <path d="M860.5,68.5v-9.9h8.6v-14.3h12.1v14.3h12.3v9.9h-12.3v22.9c0,2.2.4,4,1.2,5.4.8,1.4,2.5,2.2,5.3,2.2s1.7,0,2.7-.3c1-.2,1.8-.4,2.6-.8l.4,9.7c-1.1.4-2.4.7-3.9,1-1.5.2-2.9.4-4.3.4-3.3,0-6-.5-8-1.4-2.1-.9-3.7-2.2-4.9-3.8-1.2-1.6-2-3.5-2.5-5.5-.4-2.1-.7-4.3-.7-6.7v-23h-8.6Z"/>
  </g>
  <path d="M108.3,100.4c1.5-3.5.7-7.6-2-10.3l-18.4-18.5,18.4-18.5c1.8-1.7,2.8-4.1,2.8-6.6,0-1.3-.3-2.5-.7-3.7-1.4-3.5-4.9-5.8-8.7-5.8h-49.6c-8.7,0-15.7,7-15.7,15.7v37.7c0,8.7,7,15.7,15.7,15.7h49.6c3.8,0,7.3-2.3,8.7-5.8Z" style="fill: #fff;"/>
</svg>
