<?xml version="1.0" encoding="UTF-8"?>
<svg width="80px" height="60px" viewBox="0 0 80 60" version="1.1" xmlns="http://www.w3.org/2000/svg" xmlns:xlink="http://www.w3.org/1999/xlink">
    <title>thumbs</title>
    <defs>
        <path d="M0,0 L80,0 L80,60 L0,60 L0,0 Z" id="path-1"></path>
        <path d="M0,0 L25,0 L25,18 L0,18 L0,0 Z" id="path-2"></path>
        <path d="M0,0 L25,0 L25,18 L0,18 L0,0 Z" id="path-3"></path>
        <path d="M0,0 L25,0 L25,18 L0,18 L0,0 Z" id="path-4"></path>
        <path d="M0,0 L25,0 L25,18 L0,18 L0,0 Z" id="path-5"></path>
        <path d="M0,0 L25,0 L25,18 L0,18 L0,0 Z" id="path-6"></path>
        <path d="M0,0 L25,0 L25,18 L0,18 L0,0 Z" id="path-7"></path>
        <path d="M0,0 L25,0 L25,18 L0,18 L0,0 Z" id="path-8"></path>
        <path d="M0,0 L25,0 L25,18 L0,18 L0,0 Z" id="path-9"></path>
        <path d="M0,0 L25,0 L25,18 L0,18 L0,0 Z" id="path-10"></path>
    </defs>
    <g id="thumbs" stroke="none" fill="none" xlink:href="#path-1" fill-rule="evenodd">
        <use fill="#FFFFFF" xlink:href="#path-1"></use>
        <g id="thumb" xlink:href="#path-2" stroke-width="1">
            <rect id="chip-copy" stroke="#CDD8E4" fill="#F3F7FD" x="0.5" y="0.5" width="24" height="17" rx="5"></rect>
            <g id="Group" transform="translate(5, 4)" fill="#CDD8E4">
                <path d="M9.37336945,1 C8.99839275,1 8.64685209,1.1875 8.43592769,1.5015625 L5.81109078,5.4390625 L5.00020366,4.421875 C4.78459205,4.1546875 4.46586186,4 4.12369561,4 C3.78152937,4 3.45811197,4.1546875 3.24718757,4.421875 L0.247373952,8.171875 C-0.024484157,8.509375 -0.0760434536,8.9734375 0.111444898,9.3625 C0.298933249,9.7515625 0.692658787,10 1.12388199,10 L4.87364902,10 L7.12350924,10 L13.8730899,10 C14.2902515,10 14.6699154,9.7703125 14.8667781,9.4046875 C15.0636409,9.0390625 15.0402049,8.59375 14.8105316,8.2515625 L10.3108112,1.5015625 C10.0998868,1.1875 9.74834615,1 9.37336945,1 Z" id="Path"></path>
                <path d="M1.5,3 C2.32842712,3 3,2.32842712 3,1.5 C3,0.671572875 2.32842712,0 1.5,0 C0.671572875,0 0,0.671572875 0,1.5 C0,2.32842712 0.671572875,3 1.5,3 Z" id="Path"></path>
            </g>
        </g>
        <g id="thumb-copy" transform="translate(27.5, 0)" xlink:href="#path-3" stroke-width="1">
            <rect id="chip-copy" stroke="#CDD8E4" fill="#F3F7FD" x="0.5" y="0.5" width="24" height="17" rx="5"></rect>
            <g id="Group" transform="translate(5, 4)" fill="#CDD8E4">
                <path d="M9.37336945,1 C8.99839275,1 8.64685209,1.1875 8.43592769,1.5015625 L5.81109078,5.4390625 L5.00020366,4.421875 C4.78459205,4.1546875 4.46586186,4 4.12369561,4 C3.78152937,4 3.45811197,4.1546875 3.24718757,4.421875 L0.247373952,8.171875 C-0.024484157,8.509375 -0.0760434536,8.9734375 0.111444898,9.3625 C0.298933249,9.7515625 0.692658787,10 1.12388199,10 L4.87364902,10 L7.12350924,10 L13.8730899,10 C14.2902515,10 14.6699154,9.7703125 14.8667781,9.4046875 C15.0636409,9.0390625 15.0402049,8.59375 14.8105316,8.2515625 L10.3108112,1.5015625 C10.0998868,1.1875 9.74834615,1 9.37336945,1 Z" id="Path"></path>
                <path d="M1.5,3 C2.32842712,3 3,2.32842712 3,1.5 C3,0.671572875 2.32842712,0 1.5,0 C0.671572875,0 0,0.671572875 0,1.5 C0,2.32842712 0.671572875,3 1.5,3 Z" id="Path"></path>
            </g>
        </g>
        <g id="thumb-copy-2" transform="translate(55, 0)" xlink:href="#path-4" stroke-width="1">
            <rect id="chip-copy" stroke="#CDD8E4" fill="#F3F7FD" x="0.5" y="0.5" width="24" height="17" rx="5"></rect>
            <g id="Group" transform="translate(5, 4)" fill="#CDD8E4">
                <path d="M9.37336945,1 C8.99839275,1 8.64685209,1.1875 8.43592769,1.5015625 L5.81109078,5.4390625 L5.00020366,4.421875 C4.78459205,4.1546875 4.46586186,4 4.12369561,4 C3.78152937,4 3.45811197,4.1546875 3.24718757,4.421875 L0.247373952,8.171875 C-0.024484157,8.509375 -0.0760434536,8.9734375 0.111444898,9.3625 C0.298933249,9.7515625 0.692658787,10 1.12388199,10 L4.87364902,10 L7.12350924,10 L13.8730899,10 C14.2902515,10 14.6699154,9.7703125 14.8667781,9.4046875 C15.0636409,9.0390625 15.0402049,8.59375 14.8105316,8.2515625 L10.3108112,1.5015625 C10.0998868,1.1875 9.74834615,1 9.37336945,1 Z" id="Path"></path>
                <path d="M1.5,3 C2.32842712,3 3,2.32842712 3,1.5 C3,0.671572875 2.32842712,0 1.5,0 C0.671572875,0 0,0.671572875 0,1.5 C0,2.32842712 0.671572875,3 1.5,3 Z" id="Path"></path>
            </g>
        </g>
        <g id="thumb-copy-5" transform="translate(0, 21)" xlink:href="#path-5" stroke-width="1">
            <rect id="chip-copy" stroke="#CDD8E4" fill="#F3F7FD" x="0.5" y="0.5" width="24" height="17" rx="5"></rect>
            <g id="Group" transform="translate(5, 4)" fill="#CDD8E4">
                <path d="M9.37336945,1 C8.99839275,1 8.64685209,1.1875 8.43592769,1.5015625 L5.81109078,5.4390625 L5.00020366,4.421875 C4.78459205,4.1546875 4.46586186,4 4.12369561,4 C3.78152937,4 3.45811197,4.1546875 3.24718757,4.421875 L0.247373952,8.171875 C-0.024484157,8.509375 -0.0760434536,8.9734375 0.111444898,9.3625 C0.298933249,9.7515625 0.692658787,10 1.12388199,10 L4.87364902,10 L7.12350924,10 L13.8730899,10 C14.2902515,10 14.6699154,9.7703125 14.8667781,9.4046875 C15.0636409,9.0390625 15.0402049,8.59375 14.8105316,8.2515625 L10.3108112,1.5015625 C10.0998868,1.1875 9.74834615,1 9.37336945,1 Z" id="Path"></path>
                <path d="M1.5,3 C2.32842712,3 3,2.32842712 3,1.5 C3,0.671572875 2.32842712,0 1.5,0 C0.671572875,0 0,0.671572875 0,1.5 C0,2.32842712 0.671572875,3 1.5,3 Z" id="Path"></path>
            </g>
        </g>
        <g id="thumb-copy-4" transform="translate(27.5, 21)" xlink:href="#path-6" stroke-width="1">
            <rect id="chip-copy" stroke="#CDD8E4" fill="#F3F7FD" x="0.5" y="0.5" width="24" height="17" rx="5"></rect>
            <g id="Group" transform="translate(5, 4)" fill="#CDD8E4">
                <path d="M9.37336945,1 C8.99839275,1 8.64685209,1.1875 8.43592769,1.5015625 L5.81109078,5.4390625 L5.00020366,4.421875 C4.78459205,4.1546875 4.46586186,4 4.12369561,4 C3.78152937,4 3.45811197,4.1546875 3.24718757,4.421875 L0.247373952,8.171875 C-0.024484157,8.509375 -0.0760434536,8.9734375 0.111444898,9.3625 C0.298933249,9.7515625 0.692658787,10 1.12388199,10 L4.87364902,10 L7.12350924,10 L13.8730899,10 C14.2902515,10 14.6699154,9.7703125 14.8667781,9.4046875 C15.0636409,9.0390625 15.0402049,8.59375 14.8105316,8.2515625 L10.3108112,1.5015625 C10.0998868,1.1875 9.74834615,1 9.37336945,1 Z" id="Path"></path>
                <path d="M1.5,3 C2.32842712,3 3,2.32842712 3,1.5 C3,0.671572875 2.32842712,0 1.5,0 C0.671572875,0 0,0.671572875 0,1.5 C0,2.32842712 0.671572875,3 1.5,3 Z" id="Path"></path>
            </g>
        </g>
        <g id="thumb-copy-3" transform="translate(55, 21)" xlink:href="#path-7" stroke-width="1">
            <rect id="chip-copy" stroke="#CDD8E4" fill="#F3F7FD" x="0.5" y="0.5" width="24" height="17" rx="5"></rect>
            <g id="Group" transform="translate(5, 4)" fill="#CDD8E4">
                <path d="M9.37336945,1 C8.99839275,1 8.64685209,1.1875 8.43592769,1.5015625 L5.81109078,5.4390625 L5.00020366,4.421875 C4.78459205,4.1546875 4.46586186,4 4.12369561,4 C3.78152937,4 3.45811197,4.1546875 3.24718757,4.421875 L0.247373952,8.171875 C-0.024484157,8.509375 -0.0760434536,8.9734375 0.111444898,9.3625 C0.298933249,9.7515625 0.692658787,10 1.12388199,10 L4.87364902,10 L7.12350924,10 L13.8730899,10 C14.2902515,10 14.6699154,9.7703125 14.8667781,9.4046875 C15.0636409,9.0390625 15.0402049,8.59375 14.8105316,8.2515625 L10.3108112,1.5015625 C10.0998868,1.1875 9.74834615,1 9.37336945,1 Z" id="Path"></path>
                <path d="M1.5,3 C2.32842712,3 3,2.32842712 3,1.5 C3,0.671572875 2.32842712,0 1.5,0 C0.671572875,0 0,0.671572875 0,1.5 C0,2.32842712 0.671572875,3 1.5,3 Z" id="Path"></path>
            </g>
        </g>
        <g id="thumb-copy-8" transform="translate(0, 42)" xlink:href="#path-8" stroke-width="1">
            <rect id="chip-copy" stroke="#CDD8E4" fill="#F3F7FD" x="0.5" y="0.5" width="24" height="17" rx="5"></rect>
            <g id="Group" transform="translate(5, 4)" fill="#CDD8E4">
                <path d="M9.37336945,1 C8.99839275,1 8.64685209,1.1875 8.43592769,1.5015625 L5.81109078,5.4390625 L5.00020366,4.421875 C4.78459205,4.1546875 4.46586186,4 4.12369561,4 C3.78152937,4 3.45811197,4.1546875 3.24718757,4.421875 L0.247373952,8.171875 C-0.024484157,8.509375 -0.0760434536,8.9734375 0.111444898,9.3625 C0.298933249,9.7515625 0.692658787,10 1.12388199,10 L4.87364902,10 L7.12350924,10 L13.8730899,10 C14.2902515,10 14.6699154,9.7703125 14.8667781,9.4046875 C15.0636409,9.0390625 15.0402049,8.59375 14.8105316,8.2515625 L10.3108112,1.5015625 C10.0998868,1.1875 9.74834615,1 9.37336945,1 Z" id="Path"></path>
                <path d="M1.5,3 C2.32842712,3 3,2.32842712 3,1.5 C3,0.671572875 2.32842712,0 1.5,0 C0.671572875,0 0,0.671572875 0,1.5 C0,2.32842712 0.671572875,3 1.5,3 Z" id="Path"></path>
            </g>
        </g>
        <g id="thumb-copy-7" transform="translate(27.5, 42)" xlink:href="#path-9" stroke-width="1">
            <rect id="chip-copy" stroke="#CDD8E4" fill="#F3F7FD" x="0.5" y="0.5" width="24" height="17" rx="5"></rect>
            <g id="Group" transform="translate(5, 4)" fill="#CDD8E4">
                <path d="M9.37336945,1 C8.99839275,1 8.64685209,1.1875 8.43592769,1.5015625 L5.81109078,5.4390625 L5.00020366,4.421875 C4.78459205,4.1546875 4.46586186,4 4.12369561,4 C3.78152937,4 3.45811197,4.1546875 3.24718757,4.421875 L0.247373952,8.171875 C-0.024484157,8.509375 -0.0760434536,8.9734375 0.111444898,9.3625 C0.298933249,9.7515625 0.692658787,10 1.12388199,10 L4.87364902,10 L7.12350924,10 L13.8730899,10 C14.2902515,10 14.6699154,9.7703125 14.8667781,9.4046875 C15.0636409,9.0390625 15.0402049,8.59375 14.8105316,8.2515625 L10.3108112,1.5015625 C10.0998868,1.1875 9.74834615,1 9.37336945,1 Z" id="Path"></path>
                <path d="M1.5,3 C2.32842712,3 3,2.32842712 3,1.5 C3,0.671572875 2.32842712,0 1.5,0 C0.671572875,0 0,0.671572875 0,1.5 C0,2.32842712 0.671572875,3 1.5,3 Z" id="Path"></path>
            </g>
        </g>
        <g id="thumb-copy-6" transform="translate(55, 42)" xlink:href="#path-10" stroke-width="1">
            <rect id="chip-copy" stroke="#CDD8E4" fill="#F3F7FD" x="0.5" y="0.5" width="24" height="17" rx="5"></rect>
            <g id="Group" transform="translate(5, 4)" fill="#CDD8E4">
                <path d="M9.37336945,1 C8.99839275,1 8.64685209,1.1875 8.43592769,1.5015625 L5.81109078,5.4390625 L5.00020366,4.421875 C4.78459205,4.1546875 4.46586186,4 4.12369561,4 C3.78152937,4 3.45811197,4.1546875 3.24718757,4.421875 L0.247373952,8.171875 C-0.024484157,8.509375 -0.0760434536,8.9734375 0.111444898,9.3625 C0.298933249,9.7515625 0.692658787,10 1.12388199,10 L4.87364902,10 L7.12350924,10 L13.8730899,10 C14.2902515,10 14.6699154,9.7703125 14.8667781,9.4046875 C15.0636409,9.0390625 15.0402049,8.59375 14.8105316,8.2515625 L10.3108112,1.5015625 C10.0998868,1.1875 9.74834615,1 9.37336945,1 Z" id="Path"></path>
                <path d="M1.5,3 C2.32842712,3 3,2.32842712 3,1.5 C3,0.671572875 2.32842712,0 1.5,0 C0.671572875,0 0,0.671572875 0,1.5 C0,2.32842712 0.671572875,3 1.5,3 Z" id="Path"></path>
            </g>
        </g>
    </g>
</svg>